# xmcd
#
# Track frame offsets:
#        150
#        20220
#        37890
#        55335
#        79612
#        100137
#        121655
#        140930
#        174015
#        191712
#        222682
#        238315
#        256795
#        276217
#
# Disc length: 4034 seconds
#
# Revision: 0
# Processed by: cddbd v1.5.1PL0 Copyright (c) Steve Scherf et al.
# Submitted via: ExactAudioCopy v0.95a5
#
DISCID=ca0fc00e
DTITLE=Dead Or Alive - Star Box
DYEAR=1900
DGENRE=
TTITLE0=You Spin Me Around(Like A Record)
TTITLE1=In Too Deep
TTITLE2=Lover Come Back To Me
TTITLE3=My Heart Goes Bang
TTITLE4=Brand New Lover
TTITLE5=I'll Save You All My Kisses
TTITLE6=Son Of A Gun
TTITLE7=Something In My House
TTITLE8=Hooked On Love
TTITLE9=Turn Around And Count 2 Ten
TTITLE10=Give It Back(That Love Is Mine)
TTITLE11=Come Home(With Me Baby)
TTITLE12=Baby Don't Say Goodbye
TTITLE13=Your Sweetness(Is Your Weakness)
EXTD=
EXTT0=
EXTT1=
EXTT2=
EXTT3=
EXTT4=
EXTT5=
EXTT6=
EXTT7=
EXTT8=
EXTT9=
EXTT10=
EXTT11=
EXTT12=
EXTT13=
PLAYORDER=
